<svg width="20" height="20" viewBox="0 0 20 20" fill="none" xmlns="http://www.w3.org/2000/svg">
<path d="M14.0812 9.05725H10.5668V5.54286C10.5668 5.12773 10.2271 4.78809 9.81202 4.78809C9.3969 4.78809 9.05725 5.12773 9.05725 5.54286V9.05725H5.54286C5.12773 9.05725 4.78809 9.34029 4.78809 9.81202C4.78809 10.2838 5.14188 10.5668 5.54286 10.5668C5.94383 10.5668 9.05725 10.5668 9.05725 10.5668C9.05725 10.5668 9.05725 13.633 9.05725 14.0812C9.05725 14.5293 9.38747 14.836 9.81202 14.836C10.2366 14.836 10.5668 14.4963 10.5668 14.0812V10.5668H14.0812C14.4963 10.5668 14.836 10.2271 14.836 9.81202C14.836 9.3969 14.4963 9.05725 14.0812 9.05725Z" fill="#A3C3BD"/>
<path fill-rule="evenodd" clip-rule="evenodd" d="M9.81201 1.32085C12.081 1.32085 14.2133 2.20299 15.8172 3.80687C17.421 5.41076 18.3032 7.54298 18.3032 9.81201C18.3032 12.081 17.421 14.2133 15.8172 15.8172C14.2133 17.421 12.081 18.3032 9.81201 18.3032C7.54298 18.3032 5.41076 17.421 3.80687 15.8172C2.20299 14.2133 1.32085 12.081 1.32085 9.81201C1.32085 7.54298 2.20299 5.41076 3.80687 3.80687C5.41076 2.20299 7.54298 1.32085 9.81201 1.32085ZM9.81201 0C4.39182 0 0 4.39182 0 9.81201C0 15.2322 4.39182 19.624 9.81201 19.624C15.2322 19.624 19.624 15.2322 19.624 9.81201C19.624 4.39182 15.2322 0 9.81201 0Z" fill="#A3C3BD"/>
</svg>
