<svg width="19" height="19" viewBox="0 0 19 19" fill="none" xmlns="http://www.w3.org/2000/svg">
<path fill-rule="evenodd" clip-rule="evenodd" d="M11.9619 6.34665L8.59459 10.7685L7.1414 8.9122C6.83884 8.52421 6.27821 8.45658 5.892 8.76003C5.5049 9.06259 5.43638 9.62233 5.73983 10.0085L7.90315 12.7734C8.07223 12.9888 8.3303 13.1143 8.60438 13.1143H8.61061C8.88559 13.1134 9.14543 12.9834 9.31184 12.7636L13.3777 7.42431C13.6759 7.03276 13.6002 6.47569 13.2087 6.17757C12.8162 5.87946 12.2592 5.95599 11.9619 6.34665ZM9.55514 16.6743C5.62984 16.6743 2.43603 13.4804 2.43603 9.55514C2.43603 5.62984 5.62984 2.43603 9.55514 2.43603C13.4804 2.43603 16.6743 5.62984 16.6743 9.55514C16.6743 13.4804 13.4804 16.6743 9.55514 16.6743ZM9.55514 0.65625C4.64028 0.65625 0.65625 4.64117 0.65625 9.55514C0.65625 14.4691 4.64028 18.454 9.55514 18.454C14.47 18.454 18.454 14.4691 18.454 9.55514C18.454 4.64117 14.47 0.65625 9.55514 0.65625Z" fill="#659B91"/>
</svg>
