<svg width="17" height="17" viewBox="0 0 17 17" fill="none" xmlns="http://www.w3.org/2000/svg">
<path fill-rule="evenodd" clip-rule="evenodd" d="M10.1789 8.38233L15.6365 2.92477C16.1336 2.4277 16.1336 1.62426 15.6365 1.12719C15.1394 0.630128 14.336 0.630128 13.8389 1.12719L8.38136 6.58476L2.92379 1.12719C2.42673 0.630128 1.62328 0.630128 1.12622 1.12719C0.629151 1.62426 0.629151 2.4277 1.12622 2.92477L6.58378 8.38233L1.12622 13.8399C0.629151 14.337 0.629151 15.1404 1.12622 15.6375C1.37412 15.8854 1.69956 16.01 2.02501 16.01C2.35045 16.01 2.6759 15.8854 2.92379 15.6375L8.38136 10.1799L13.8389 15.6375C14.0868 15.8854 14.4123 16.01 14.7377 16.01C15.0632 16.01 15.3886 15.8854 15.6365 15.6375C16.1336 15.1404 16.1336 14.337 15.6365 13.8399L10.1789 8.38233Z" fill="#659B91"/>
</svg>
