<svg width="17" height="17" viewBox="0 0 17 17" fill="none" xmlns="http://www.w3.org/2000/svg">
<path fill-rule="evenodd" clip-rule="evenodd" d="M15.293 7.66538H9.57228V1.94466C9.57228 1.4174 9.14514 0.991211 8.61883 0.991211C8.09253 0.991211 7.66538 1.4174 7.66538 1.94466V7.66538H1.94466C1.41836 7.66538 0.991211 8.09157 0.991211 8.61883C0.991211 9.14609 1.41836 9.57228 1.94466 9.57228H7.66538V15.293C7.66538 15.8203 8.09253 16.2465 8.61883 16.2465C9.14514 16.2465 9.57228 15.8203 9.57228 15.293V9.57228H15.293C15.8193 9.57228 16.2465 9.14609 16.2465 8.61883C16.2465 8.09157 15.8193 7.66538 15.293 7.66538Z" fill="#659B91"/>
</svg>
